<svg width="1592" height="976" viewBox="0 0 1592 976" fill="none" xmlns="http://www.w3.org/2000/svg">
<path d="M822.938 413.756C878.937 446.088 878.938 526.917 822.938 559.249L126 961.626C70.0001 993.957 -2.89824e-06 953.543 0 888.879L3.60695e-05 84.1254C3.89677e-05 19.4621 70 -20.9524 126 11.3792L822.938 413.756Z" fill="black"/>
<path d="M724.945 84.2994C724.946 19.6364 794.945 -20.778 850.945 11.5534L1549.95 415.122C1605.95 447.453 1605.95 528.282 1549.95 560.614L1535.05 569.214L927.984 218.727C899.985 202.562 864.985 222.769 864.984 255.1V956.076L850.945 964.181C794.945 996.513 724.945 956.098 724.945 891.435V84.2994Z" fill="black"/>
<path d="M1343.38 618.456C1366.48 631.811 1366.5 665.16 1343.42 678.485L1056.2 844.315C1033.12 857.64 1004.25 840.946 1004.23 814.267L1004.01 482.232C1004 455.553 1032.85 438.897 1055.94 452.252L1343.38 618.456Z" fill="black"/>
<path d="M822.938 413.756C878.937 446.088 878.938 526.917 822.938 559.249L126 961.626C70.0001 993.957 -2.89824e-06 953.543 0 888.879L3.60695e-05 84.1254C3.89677e-05 19.4621 70 -20.9524 126 11.3792L822.938 413.756Z" fill="black"/>
</svg>
